<svg width="512" height="512" viewBox="0 0 512 512" fill="none" xmlns="http://www.w3.org/2000/svg">
<rect width="512" height="512" rx="100" fill="#F25533"/>
<path d="M196.1 373.5C183.5 373.5 174.5 370.3 169.1 363.9C163.7 357.5 161 348.3 161 336.3C161 330.3 161.5 322.5 162.5 312.9C163.7 303.3 165.2 292.7 167 281.1C168.8 269.3 170.8 257.3 173 245.1C175.2 232.7 177.3 220.9 179.3 209.7C181.3 198.3 183.1 188.2 184.7 179.4L167.9 155.4C178.5 149.2 188.6 144 198.2 139.8C207.8 135.6 217.4 133.5 227 133.5C235.4 133.5 241.2 135.2 244.4 138.6C247.8 141.8 249.5 147.2 249.5 154.8C249.5 163 249 171.5 248 180.3C247.2 188.9 246.1 197.2 244.7 205.2C243.3 213.2 241.9 220.2 240.5 226.2C239.3 232.2 238.3 236.6 237.5 239.4L240.5 240.9C252.3 220.7 265.2 206.5 279.2 198.3C293.2 190.1 307.5 186 322.1 186C334.3 186 343.4 189 349.4 195C355.4 200.8 358.4 209.9 358.4 222.3C358.4 233.1 356.9 244.6 353.9 256.8C351.1 268.8 348.2 281.2 345.2 294C342.2 306.6 340.7 319.1 340.7 331.5C340.7 343.9 342.8 353 347 358.8C336.4 368.6 325.4 373.5 314 373.5C301.4 373.5 292.4 370.3 287 363.9C281.6 357.5 278.9 348.3 278.9 336.3C278.9 329.7 279.8 322.4 281.6 314.4C283.4 306.2 285.5 297.9 287.9 289.5C290.3 281.1 292.4 273.2 294.2 265.8C296 258.4 296.9 252 296.9 246.6C296.9 242.4 296.1 239.1 294.5 236.7C293.1 234.3 290.5 233.1 286.7 233.1C281.3 233.1 275 235.5 267.8 240.3C260.6 245.1 253.5 251.9 246.5 260.7C239.7 269.3 234 279.6 229.4 291.6C225 303.6 222.8 316.9 222.8 331.5C222.8 343.9 224.9 353 229.1 358.8C218.5 368.6 207.5 373.5 196.1 373.5Z" fill="white"/>
</svg>
