<svg width="128" height="128" viewBox="0 0 128 128" fill="none" xmlns="http://www.w3.org/2000/svg">
<rect width="128" height="128" rx="16" fill="#F25533"/>
<rect width="114.551" height="114.551" transform="translate(8 8)" fill="#F25533"/>
<g clip-path="url(#clip0_7_3)">
<path fill-rule="evenodd" clip-rule="evenodd" d="M22.7857 78.8724C15.2766 71.3633 15.2755 59.1887 22.7857 51.6784C29.4369 45.0273 40.4075 43.9557 48.0849 50.6355L48.9356 51.3789C49.7526 50.5683 50.5664 49.7545 51.377 48.9375L50.6336 48.0867C43.9527 40.4106 45.0242 29.4399 51.6765 22.7876C59.1856 15.2785 71.3602 15.2797 78.8693 22.7888C85.5204 29.4399 86.5932 40.4094 79.9122 48.0879L79.17 48.9375C79.9808 49.7551 80.795 50.5693 81.6126 51.3801L82.461 50.6367C90.1395 43.9557 101.109 45.0285 107.761 51.6808C115.27 59.1899 115.27 71.3633 107.761 78.8724C101.11 85.5235 90.1407 86.5962 82.4622 79.9153L81.6114 79.1719C80.7944 79.9825 79.9806 80.7963 79.17 81.6133L79.9134 82.464C86.5944 90.1426 85.5216 101.112 78.8705 107.763C71.3602 115.273 59.188 115.275 51.6777 107.764C45.0254 101.112 43.955 90.1426 50.6336 82.4641C50.8731 82.188 51.1213 81.9048 51.3782 81.6145C50.5672 80.7971 49.753 79.9829 48.9356 79.1719L48.0849 79.9153C40.4075 86.5951 29.4369 85.5235 22.7857 78.8724ZM27.5587 56.4514C25.2184 58.7916 23.9037 61.9657 23.9037 65.2754C23.9037 68.585 25.2184 71.7591 27.5587 74.0994C31.8997 78.4404 38.8587 78.9965 43.6555 74.8225C44.5926 74.0063 45.6367 73.08 46.7878 72.0435C47.425 71.4681 48.2575 71.1572 49.1159 71.1741C49.9742 71.1909 50.7939 71.5342 51.408 72.1342C53.7706 74.4425 56.1064 76.7783 58.4148 79.1409C59.0152 79.7549 59.3589 80.5747 59.376 81.4334C59.3931 82.292 59.0822 83.1249 58.5066 83.7623C57.4677 84.9126 56.5414 85.9567 55.7276 86.8946C51.5524 91.6902 52.1085 98.6492 56.4507 102.991C58.7911 105.331 61.965 106.645 65.2744 106.645C68.5837 106.645 71.7575 105.33 74.0975 102.99C78.4386 98.6492 78.9934 91.6914 74.8206 86.8958C74.0061 85.9571 73.0797 84.9122 72.0416 83.7611C71.4662 83.1239 71.1553 82.2914 71.1722 81.433C71.189 80.5747 71.5323 79.755 72.1323 79.1409C74.4407 76.7783 76.7764 74.4425 79.139 72.1341C79.7531 71.5342 80.5728 71.1909 81.4312 71.174C82.2895 71.1572 83.122 71.4681 83.7592 72.0435C84.9103 73.0816 85.9548 74.0083 86.8927 74.8237C91.6883 78.9965 98.6473 78.4404 102.988 74.0994C105.328 71.7592 106.642 68.5857 106.642 65.2766C106.642 61.9675 105.328 58.7939 102.988 56.4537C98.6461 52.1115 91.6883 51.5567 86.8927 55.7295C85.954 56.544 84.9099 57.4704 83.7604 58.5085C83.1231 59.0846 82.2901 59.3959 81.4311 59.3791C80.5722 59.3622 79.752 59.0184 79.1378 58.4178C76.7752 56.1094 74.4395 53.7737 72.1311 51.4111C71.531 50.7968 71.1876 49.9768 71.171 49.1181C71.1544 48.2595 71.4657 47.4268 72.0416 46.7897C73.0789 45.6394 74.0053 44.5953 74.8206 43.6574C78.9934 38.8618 78.4374 31.9028 74.0963 27.5618C71.7563 25.2217 68.5825 23.907 65.2732 23.9067C61.9638 23.9065 58.7899 25.2208 56.4495 27.5606C52.1073 31.9028 51.5524 38.8606 55.7264 43.6574C56.5418 44.5953 57.4681 45.6394 58.5054 46.7897C59.0808 47.4269 59.3917 48.2594 59.3749 49.1177C59.358 49.9761 59.0147 50.7958 58.4148 51.4099C56.1067 53.7728 53.771 56.1086 51.408 58.4166C50.7939 59.0166 49.9742 59.3599 49.1159 59.3767C48.2575 59.3936 47.425 59.0827 46.7878 58.5073C45.6367 57.4692 44.5926 56.5428 43.6555 55.7283C38.8587 51.5543 31.8997 52.1103 27.5587 56.4514ZM68.9606 33.1628C67.9829 32.1864 66.6577 31.638 65.2759 31.638C63.8941 31.638 62.5689 32.1864 61.5912 33.1628C60.6831 34.0709 60.1986 35.2164 60.1354 36.3512C60.0682 37.5218 60.4652 38.6717 61.2403 39.5515C61.7432 40.1293 62.2499 40.7036 62.7605 41.2745C63.0771 41.6284 63.4648 41.9115 63.8982 42.1053C64.3316 42.2991 64.8011 42.3993 65.2759 42.3993C65.7507 42.3993 66.2201 42.2991 66.6536 42.1053C67.087 41.9115 67.4747 41.6284 67.7913 41.2745C68.3019 40.7036 68.8086 40.1293 69.3114 39.5515C70.0866 38.6717 70.4836 37.5218 70.4164 36.3512C70.3543 35.2152 69.8687 34.0709 68.9606 33.1628ZM55.5868 65.2754C55.5869 64.9389 55.654 64.6059 55.7843 64.2957C55.9146 63.9855 56.1055 63.7044 56.3457 63.4688C58.7446 61.1188 61.1193 58.7441 63.4693 56.3452C63.7051 56.1046 63.9865 55.9135 64.2971 55.7831C64.6076 55.6527 64.9411 55.5856 65.2779 55.5857C65.6148 55.5858 65.9482 55.6531 66.2587 55.7838C66.5692 55.9144 66.8504 56.1056 67.086 56.3464C69.4357 58.7449 71.81 61.1192 74.2085 63.4688C74.449 63.7045 74.64 63.9858 74.7704 64.2962C74.9008 64.6066 74.968 64.9399 74.968 65.2766C74.968 65.6133 74.9008 65.9466 74.7704 66.257C74.64 66.5674 74.449 66.8487 74.2085 67.0843C71.8096 69.4344 69.4349 71.8091 67.0849 74.208C66.8492 74.4485 66.5679 74.6395 66.2575 74.7699C65.9471 74.9003 65.6138 74.9675 65.2771 74.9675C64.9404 74.9675 64.6071 74.9003 64.2967 74.7699C63.9863 74.6395 63.705 74.4485 63.4693 74.208C61.1193 71.8091 58.7446 69.4344 56.3457 67.0843C56.1052 66.8485 55.9142 66.567 55.7839 66.2564C55.6535 65.9458 55.5865 65.6122 55.5868 65.2754ZM33.1622 61.5919C32.1863 62.5697 31.6383 63.8948 31.6385 65.2762C31.6387 66.6577 32.1871 67.9826 33.1634 68.9601C34.0714 69.8682 35.2169 70.3526 36.3517 70.4159C37.5223 70.4831 38.6722 70.086 39.552 69.3109C40.081 68.8519 40.6553 68.3452 41.275 67.7907C41.6289 67.4742 41.912 67.0865 42.1058 66.6531C42.2996 66.2196 42.3998 65.7502 42.3998 65.2754C42.3998 64.8006 42.2996 64.3311 42.1058 63.8977C41.912 63.4643 41.6289 63.0766 41.275 62.76C40.7041 62.2494 40.1298 61.7427 39.552 61.2398C38.6722 60.4647 37.5223 60.0677 36.3517 60.1349C35.1456 60.2099 34.01 60.7284 33.1634 61.5907M61.5912 97.3879C62.5689 98.3644 63.8941 98.9128 65.2759 98.9128C66.6577 98.9128 67.9829 98.3644 68.9606 97.3879C69.8687 96.4799 70.3531 95.3344 70.4164 94.1996C70.4836 93.029 70.0866 91.8791 69.3114 90.9993C68.8516 90.4711 68.3449 89.8968 67.7913 89.2763C67.4747 88.9224 67.087 88.6393 66.6536 88.4455C66.2201 88.2517 65.7507 88.1515 65.2759 88.1515C64.8011 88.1515 64.3316 88.2517 63.8982 88.4455C63.4648 88.6393 63.0771 88.9224 62.7605 89.2763C62.2499 89.8472 61.7432 90.4215 61.2404 90.9993C60.4652 91.8791 60.0682 93.029 60.1354 94.1996C60.2104 95.4057 60.7289 96.5413 61.5912 97.3879ZM97.3884 68.9601C98.3649 67.9824 98.9133 66.6572 98.9133 65.2754C98.9133 63.8936 98.3649 62.5683 97.3884 61.5907C96.4804 60.6826 95.3349 60.1981 94.2001 60.1349C93.0295 60.0677 91.8796 60.4647 90.9998 61.2398C90.422 61.7427 89.8477 62.2494 89.2768 62.76C88.9229 63.0766 88.6398 63.4643 88.446 63.8977C88.2522 64.3311 88.152 64.8006 88.152 65.2754C88.152 65.7502 88.2522 66.2196 88.446 66.6531C88.6398 67.0865 88.9229 67.4742 89.2768 67.7908C89.8973 68.3444 90.4716 68.8511 90.9998 69.3109C91.9258 70.1176 93.0617 70.4779 94.2001 70.4159C95.3361 70.3538 96.4804 69.8682 97.3884 68.9601Z" fill="white"/>
</g>
<defs>
<clipPath id="clip0_7_3">
<rect width="81" height="81" fill="white" transform="translate(8 65.2754) rotate(-45)"/>
</clipPath>
</defs>
</svg>
